<svg version="1.1" viewBox="0.0 0.0 960.0 720.0" fill="none" stroke="none" stroke-linecap="square" stroke-miterlimit="10" xmlns:xlink="http://www.w3.org/1999/xlink" xmlns="http://www.w3.org/2000/svg"><clipPath id="p.0"><path d="m0 0l960.0 0l0 720.0l-960.0 0l0 -720.0z" clip-rule="nonzero"/></clipPath><g clip-path="url(#p.0)"><path fill="#000000" fill-opacity="0.0" d="m0 0l960.0 0l0 720.0l-960.0 0z" fill-rule="evenodd"/><path fill="#000000" d="m219.95801 463.76117l455.81104 0l0 98.614136l-455.81104 0z" fill-rule="evenodd"/><path stroke="#000000" stroke-width="1.0" stroke-linejoin="round" stroke-linecap="butt" d="m219.95801 463.76117l455.81104 0l0 98.614136l-455.81104 0z" fill-rule="evenodd"/><path fill="#000000" d="m390.96588 548.3018l113.79529 0l0 81.25989l-113.79529 0z" fill-rule="evenodd"/><path stroke="#000000" stroke-width="1.0" stroke-linejoin="round" stroke-linecap="butt" d="m390.96588 548.3018l113.79529 0l0 81.25989l-113.79529 0z" fill-rule="evenodd"/><path fill="#000000" d="m612.11035 287.88184l64.15747 93.98422l-283.52756 193.51181l-64.1575 -93.98422z" fill-rule="evenodd"/><path stroke="#000000" stroke-width="1.0" stroke-linejoin="round" stroke-linecap="butt" d="m612.11035 287.88184l64.15747 93.98422l-283.52756 193.51181l-64.1575 -93.98422z" fill-rule="evenodd"/><path fill="#000000" d="m569.1129 481.31458l-63.93698 94.11023l-284.72443 -193.48032l63.93701 -94.11023z" fill-rule="evenodd"/><path stroke="#000000" stroke-width="1.0" stroke-linejoin="round" stroke-linecap="butt" d="m569.1129 481.31458l-63.93698 94.11023l-284.72443 -193.48032l63.93701 -94.11023z" fill-rule="evenodd"/><path fill="#000000" d="m671.55646 284.89993l4.8188477 96.8819l-63.40155 -93.95276z" fill-rule="evenodd"/><path stroke="#000000" stroke-width="1.0" stroke-linejoin="round" stroke-linecap="butt" d="m671.55646 284.89993l4.8188477 96.8819l-63.40155 -93.95276z" fill-rule="evenodd"/><path fill="#000000" d="m225.27034 284.89993l-4.8188934 96.8819l63.40158 -93.95276z" fill-rule="evenodd"/><path stroke="#000000" stroke-width="1.0" stroke-linejoin="round" stroke-linecap="butt" d="m225.27034 284.89993l-4.8188934 96.8819l63.40158 -93.95276z" fill-rule="evenodd"/></g></svg>